<svg width="24" height="24" viewBox="0 0 24 24" fill="none" xmlns="http://www.w3.org/2000/svg">
<path d="M10.1164 17.881C11.8426 17.881 13.5194 17.3051 14.8813 16.2444L20.019 21.3821C20.4028 21.7528 21.0144 21.7422 21.3851 21.3584C21.7466 20.984 21.7466 20.3904 21.3851 20.0161L16.2473 14.8783C18.8794 11.4901 18.2665 6.6098 14.8783 3.97773C11.4901 1.34567 6.6098 1.95859 3.97773 5.34676C1.34567 8.73494 1.95859 13.6153 5.34676 16.2474C6.71081 17.307 8.38912 17.8819 10.1164 17.881ZM5.9883 5.98533C8.26823 3.70536 11.9647 3.70532 14.2447 5.98525C16.5247 8.26518 16.5247 11.9617 14.2448 14.2416C11.9648 16.5216 8.26836 16.5217 5.98839 14.2417C5.98834 14.2417 5.98834 14.2417 5.9883 14.2416C3.70837 11.9783 3.69494 8.2953 5.95826 6.01538C5.96826 6.00533 5.97826 5.99533 5.9883 5.98533V5.98533Z" fill="#A7B6BE"/>
</svg>
